<?xml version="1.0" encoding="UTF-8"?>
<!-- Generator: visioncortex VTracer 0.6.2 -->
<svg version="1.1" xmlns="http://www.w3.org/2000/svg" width="1280" height="1280">
<path d="M0 0 C1.155 0.45375 2.31 0.9075 3.5 1.375 C8.18761558 3.55139295 12.80301145 5.96837245 17 9 C17 9.66 17 10.32 17 11 C17.763125 11.268125 18.52625 11.53625 19.3125 11.8125 C21.88988618 12.95134505 23.26954864 13.81416671 25 16 C25 16.66 25 17.32 25 18 C25.66 18 26.32 18 27 18 C28.69674527 19.94299857 30.26413505 21.88085203 31.8125 23.9375 C32.26246338 24.53071045 32.71242676 25.1239209 33.17602539 25.73510742 C38.31717577 32.6182312 42.48158334 39.74599857 45 48 C45.350625 49.09441406 45.70125 50.18882812 46.0625 51.31640625 C47.62911699 57.72435118 47.32851888 64.32007342 47.3125 70.875 C47.32861328 72.18597656 47.34472656 73.49695313 47.36132812 74.84765625 C47.36513592 82.44040434 46.76478077 88.91179227 44 96 C43.56558594 97.14210938 43.13117187 98.28421875 42.68359375 99.4609375 C42.27238281 100.42257812 41.86117187 101.38421875 41.4375 102.375 C41.02371094 103.35210938 40.60992188 104.32921875 40.18359375 105.3359375 C39.18059459 107.59351317 38.129423 109.80361057 37 112 C36.34 112 35.68 112 35 112 C34.79375 112.66 34.5875 113.32 34.375 114 C32.50875748 118.07180186 30.02438473 121.68796998 27 125 C26.34 125 25.68 125 25 125 C25 125.66 25 126.32 25 127 C19.52380952 132 19.52380952 132 17 132 C17 132.66 17 133.32 17 134 C15.13671875 135.5078125 15.13671875 135.5078125 12.6875 137.125 C11.88699219 137.66382813 11.08648438 138.20265625 10.26171875 138.7578125 C8 140 8 140 5 140 C5 140.66 5 141.32 5 142 C4.23816406 142.36351562 3.47632813 142.72703125 2.69140625 143.1015625 C-2.99948532 145.87240858 -8.33013135 148.76786264 -13.53125 152.3671875 C-20.53993593 157.00267915 -28.04337664 160.95943959 -35.4375 164.9375 C-40.58977999 167.7235477 -45.60396624 170.71707476 -50.61108398 173.75366211 C-53.60777447 175.570585 -56.61331398 177.36194698 -59.66015625 179.09375 C-62.37088655 180.64092706 -65.03290803 182.2349903 -67.6875 183.875 C-71.39809974 186.11940531 -75.16251966 188.10458971 -79.0625 190 C-83.43452786 192.14445473 -87.37711325 194.5097725 -91.3671875 197.28515625 C-95.61901542 200.05452191 -100.06703877 202.47247309 -104.50488281 204.92895508 C-107.40897414 206.53730464 -110.23601547 208.15734364 -113 210 C-113.99 210 -114.98 210 -116 210 C-116 210.66 -116 211.32 -116 212 C-117.16015625 212.56267578 -117.16015625 212.56267578 -118.34375 213.13671875 C-123.61345848 215.72591957 -128.75602163 218.34262828 -133.69140625 221.5234375 C-142.4489876 227.12473319 -151.30904902 232.35691796 -160.70703125 236.80859375 C-163.11377843 237.91281956 -163.11377843 237.91281956 -165 240 C-165.99 240 -166.98 240 -168 240 C-168 282.24 -168 324.48 -168 368 C-137.57876953 367.94779297 -137.57876953 367.94779297 -106.54296875 367.89453125 C-93.68684819 367.87920083 -80.83073326 367.86461616 -67.97460938 367.85351562 C-61.21834288 367.84764278 -54.46207659 367.84158155 -47.70581055 367.83520508 C-46.85912424 367.83441383 -46.01243793 367.83362259 -45.14009446 367.83280736 C-31.50443175 367.81979035 -17.86880733 367.7961561 -4.23316725 367.76854161 C9.78020589 367.74040068 23.7935591 367.72380545 37.80695933 367.71773452 C46.44091752 367.71363601 55.07476749 367.7007326 63.70869233 367.6762506 C69.64437152 367.66028591 75.57999548 367.65562367 81.51569454 367.65949587 C84.93073832 367.66140092 88.34544404 367.65697644 91.76047897 367.64238358 C130.78497304 367.48391565 130.78497304 367.48391565 148 377 C148.886875 377.47179687 149.77375 377.94359375 150.6875 378.4296875 C153.89638364 380.16783281 156.96198212 381.97465475 160 384 C160 384.66 160 385.32 160 386 C161.65 386.66 163.3 387.32 165 388 C165 388.66 165 389.32 165 390 C165.87011719 390.35771484 165.87011719 390.35771484 166.7578125 390.72265625 C177.55625808 396.87438396 184.30036356 413.77881415 188.03491211 425.15161133 C189.03012074 429.1201096 189.30620281 432.78005263 189.30078125 436.83984375 C189.30720894 437.92852501 189.30720894 437.92852501 189.31376648 439.03919983 C189.31947382 440.56445275 189.32003678 442.08973287 189.31567383 443.61499023 C189.31251291 445.92805088 189.33601961 448.23983122 189.36132812 450.55273438 C189.39293116 457.91142253 189.31556341 464.27159505 186 471 C185.50886719 472.31291016 185.50886719 472.31291016 185.0078125 473.65234375 C182.78961195 479.39414605 180.12447264 484.69864068 177 490 C176.34 490 175.68 490 175 490 C174.59201172 490.87785156 174.59201172 490.87785156 174.17578125 491.7734375 C166.28710204 506.71213235 148.42214014 515.65178191 133.234375 520.984375 C123.05632943 523.82497793 111.77382929 523.1445343 101.30527592 523.12584114 C99.86009586 523.12688664 98.41491606 523.12836963 96.96973684 523.13024551 C93.01764466 523.13411856 89.0655771 523.13182068 85.11348535 523.12846755 C80.80655196 523.1259215 76.49962223 523.12919447 72.19268936 523.13171089 C64.65046492 523.13531709 57.10824764 523.13521637 49.56602287 523.13266373 C38.35032625 523.12887814 27.13463567 523.13081661 15.91893908 523.13387203 C-4.11365002 523.13913629 -24.14623593 523.13868196 -44.17882533 523.13579312 C-61.7103281 523.13327738 -79.24182969 523.13262095 -96.7733326 523.13381577 C-98.51782102 523.13393034 -98.51782102 523.13393034 -100.29755163 523.13404724 C-105.01854986 523.13435858 -109.73954809 523.13467698 -114.46054632 523.135007 C-158.74654078 523.13806594 -203.03253321 523.13529266 -247.31852736 523.1299101 C-286.66035071 523.12516482 -326.00217082 523.12558887 -365.34399414 523.13037109 C-409.54758331 523.13572633 -453.75117069 523.13784869 -497.95476013 523.13475883 C-502.6674573 523.13443811 -507.38015447 523.13412527 -512.09285164 523.13381577 C-513.25323277 523.13373669 -514.41361389 523.13365761 -515.60915809 523.13357614 C-533.12855805 523.13243889 -550.64795671 523.13376854 -568.16735649 523.13629532 C-588.08938794 523.1391543 -608.01141571 523.13844033 -627.9334467 523.13301457 C-639.08171098 523.13007847 -650.22996727 523.12988637 -661.37823134 523.13366075 C-668.82676023 523.13590432 -676.27528273 523.1345054 -683.72381067 523.13015598 C-687.96636318 523.1277794 -692.20889983 523.12695934 -696.45145183 523.13056196 C-700.31729272 523.13381116 -704.18310379 523.13239275 -708.04894253 523.1273813 C-710.08108703 523.12591224 -712.11323332 523.1293004 -714.1453751 523.13293558 C-729.81080581 523.10114442 -744.42278171 522.08221867 -759 516 C-760.11890625 515.54367187 -761.2378125 515.08734375 -762.390625 514.6171875 C-774.30687437 509.66955075 -774.30687437 509.66955075 -779 506 C-779.95510181 503.67944754 -780.23105848 502.56722134 -779.27490234 500.2199707 C-778.88254395 499.62788818 -778.49018555 499.03580566 -778.0859375 498.42578125 C-777.65684082 497.76271973 -777.22774414 497.0996582 -776.78564453 496.41650391 C-776.08737549 495.37502197 -776.08737549 495.37502197 -775.375 494.3125 C-774.44133078 492.8693799 -773.50902594 491.42537611 -772.578125 489.98046875 C-772.12888672 489.29001465 -771.67964844 488.59956055 -771.21679688 487.88818359 C-767.45281872 482.04737159 -764.50526874 476.11926196 -762.0234375 469.63671875 C-760.95802735 466.89186435 -759.79512815 464.20172901 -758.625 461.5 C-749.24724895 438.80354118 -744.22253215 415.5823853 -744 391 C-743.97945557 389.83911865 -743.97945557 389.83911865 -743.95849609 388.65478516 C-743.53182852 364.53007519 -746.39927032 342.86846979 -753.5 319.75 C-753.70157715 319.08814697 -753.9031543 318.42629395 -754.11083984 317.74438477 C-755.1351112 314.46301425 -756.262525 311.30374956 -757.6484375 308.15625 C-759 305 -759 305 -759.125 302.75 C-757.23923796 299.81659238 -754.16629488 299.06607106 -751 298 C-749.96875 297.649375 -748.9375 297.29875 -747.875 296.9375 C-732.26190412 293.16013809 -716.29887574 292.84771216 -700.32070923 292.87974548 C-698.67933014 292.87930844 -697.03795112 292.8784311 -695.39657247 292.87715632 C-690.92457264 292.87493743 -686.4525971 292.87889662 -681.98060036 292.88393438 C-677.14371878 292.88827643 -672.30683843 292.8867898 -667.46995544 292.8860321 C-659.10243025 292.88550924 -650.7349129 292.88863118 -642.36738968 292.89426994 C-630.26954271 292.90241718 -618.1716995 292.90500346 -606.07385008 292.90625793 C-586.44311145 292.90844339 -566.81237699 292.91508975 -547.18164062 292.92456055 C-528.11881532 292.93374776 -509.05599114 292.94082219 -489.99316406 292.94506836 C-488.81697894 292.94533108 -487.64079381 292.94559381 -486.42896672 292.94586449 C-480.52804746 292.94716958 -474.6271282 292.94843328 -468.72620893 292.94967639 C-419.81746974 292.96003325 -370.90873507 292.97763778 -322 293 C-322.00276538 292.45022649 -322.00553076 291.90045298 -322.00837994 291.33401966 C-322.07488873 277.90206419 -322.12420883 264.47013792 -322.15543652 251.03805256 C-322.17104898 244.54215136 -322.19220633 238.04636959 -322.22631836 231.55053711 C-322.2590696 225.27409387 -322.2768862 218.99776505 -322.28463173 212.7212429 C-322.29014702 210.33442574 -322.30091657 207.94761438 -322.31719017 205.56084633 C-322.50803456 176.39346996 -322.50803456 176.39346996 -315.25 162.75 C-314.90291992 162.07670654 -314.55583984 161.40341309 -314.19824219 160.7097168 C-311.34797876 155.32883959 -307.98814706 150.60328543 -304 146 C-303.319375 145.0925 -302.63875 144.185 -301.9375 143.25 C-299.5034533 140.42336513 -296.97153968 138.2609541 -294 136 C-293.34 136 -292.68 136 -292 136 C-292 135.34 -292 134.68 -292 134 C-286.80485108 129.74126064 -280.65457533 126.65140045 -274.75390625 123.5 C-272.1222753 122.06660101 -269.55961823 120.55767576 -267 119 C-262.73042863 116.40871926 -258.38165688 114.00660244 -253.98828125 111.6328125 C-250.61737004 109.79092899 -247.27327931 107.90448731 -243.9375 106 C-243.34638428 105.66307129 -242.75526855 105.32614258 -242.14624023 104.97900391 C-237.69648472 102.4297739 -233.32321002 99.77063356 -228.98828125 97.03125 C-227 96 -227 96 -224 96 C-224 95.34 -224 94.68 -224 94 C-222.35 93.67 -220.7 93.34 -219 93 C-219 92.34 -219 91.68 -219 91 C-218.2265625 90.62488281 -217.453125 90.24976563 -216.65625 89.86328125 C-211.39050134 87.27602603 -206.2479329 84.665897 -201.3203125 81.48046875 C-193.92996026 76.76507565 -186.35089203 72.30396989 -178.75 67.9375 C-178.08484375 67.55464844 -177.4196875 67.17179688 -176.734375 66.77734375 C-175 66 -175 66 -172 66 C-172 65.34 -172 64.68 -172 64 C-170.35 63.67 -168.7 63.34 -167 63 C-167 62.34 -167 61.68 -167 61 C-166.23816406 60.63648438 -165.47632813 60.27296875 -164.69140625 59.8984375 C-159.00051468 57.12759142 -153.66986865 54.23213736 -148.46875 50.6328125 C-141.49885815 46.02297897 -134.03841381 42.08576634 -126.6875 38.125 C-121.20584456 35.15845706 -115.84826292 31.99511222 -110.48486328 28.82177734 C-105.86628571 26.09089058 -101.22819639 23.39952734 -96.5625 20.75 C-92.61476093 18.50573738 -88.69449719 16.2310549 -84.8125 13.875 C-80.45771702 11.2392103 -76.01617959 8.79273457 -71.53515625 6.37890625 C-69.41537956 5.22593064 -67.32938039 4.03593858 -65.25 2.8125 C-45.68081521 -8.10108383 -20.36890856 -9.39253469 0 0 Z " fill="#000000" transform="translate(1091,481)"/>
<path d="M0 0 C5.13964041 0.00766261 10.27925382 -0.00219029 15.41889033 -0.00973 C24.4124766 -0.02053099 33.40600878 -0.02025739 42.3995975 -0.01258852 C55.77364389 -0.00121553 69.14764488 -0.00705554 82.52169099 -0.01621344 C105.02771554 -0.03107963 127.53371665 -0.03165671 150.03974184 -0.02348329 C151.06616681 -0.02311071 151.06616681 -0.02311071 152.11332763 -0.02273061 C152.79871699 -0.02248182 153.48410635 -0.02223303 154.19026509 -0.0219767 C175.09659551 -0.01439805 196.00291717 -0.0124572 216.90924868 -0.01604463 C218.31087987 -0.01627707 219.71251106 -0.01650854 221.11414225 -0.01673904 C226.74714625 -0.0176705 232.38015024 -0.0186265 238.01315423 -0.01961833 C253.75835498 -0.02236895 269.50355577 -0.02408105 285.24875674 -0.02497675 C286.32412939 -0.02503815 286.32412939 -0.02503815 287.42122673 -0.0251008 C310.2548717 -0.02632808 333.08851361 -0.02295083 355.92215762 -0.01642801 C356.66241556 -0.01621726 357.4026735 -0.01600652 358.1653635 -0.01578938 C370.1856037 -0.01235481 382.20584383 -0.00869629 394.22608396 -0.00501886 C441.89556611 0.00954941 489.56502298 0.00887322 537.23450503 -0.00571062 C549.24877706 -0.00937438 561.26304909 -0.01300762 573.27732119 -0.01642801 C574.38706344 -0.01674503 574.38706344 -0.01674503 575.51922472 -0.01706845 C598.32972424 -0.02353993 621.14022166 -0.02627927 643.95072207 -0.02497675 C644.66710637 -0.02493599 645.38349066 -0.02489524 646.12158358 -0.02485325 C661.84948348 -0.02391569 677.57738316 -0.02201453 693.30528284 -0.01924524 C698.93315919 -0.01825787 704.56103556 -0.01731862 710.18891192 -0.01639311 C711.58889701 -0.01616094 712.9888821 -0.01592475 714.38886719 -0.01568452 C735.28796556 -0.01210816 756.18705404 -0.01514447 777.08615118 -0.02273061 C777.77043448 -0.02297899 778.45471779 -0.02322738 779.15973696 -0.02348329 C780.18425666 -0.02385536 780.18425666 -0.02385536 781.22947372 -0.02423495 C804.29780669 -0.03252097 827.36611484 -0.02943714 850.43444619 -0.01364106 C863.72552508 -0.0048398 877.01654368 -0.00424622 890.30762099 -0.01557958 C899.19190414 -0.02231878 908.07613906 -0.01809827 916.96041507 -0.00506528 C922.01798691 0.00205275 927.07543917 0.00454941 932.13300714 -0.00628323 C975.24266876 -0.09175816 975.24266876 -0.09175816 993.5997394 5.38540266 C994.44278628 5.62001204 995.28583315 5.85462141 996.1544269 6.09634016 C1001.06257285 7.5010284 1005.65275614 9.18914834 1010.28333315 11.33462141 C1014.32655766 13.16873169 1018.46774993 14.76366149 1022.5997394 16.38540266 C1022.5997394 17.04540266 1022.5997394 17.70540266 1022.5997394 18.38540266 C1023.59554018 18.49561751 1023.59554018 18.49561751 1024.61145815 18.60805891 C1028.66704363 19.66304128 1031.85724443 21.64908277 1035.4122394 23.82290266 C1036.1051105 24.23089094 1036.79798159 24.63887923 1037.51184878 25.05923079 C1039.24629393 26.10673313 1040.92851854 27.23972295 1042.5997394 28.38540266 C1042.5997394 29.04540266 1042.5997394 29.70540266 1042.5997394 30.38540266 C1043.1359894 30.63290266 1043.6722394 30.88040266 1044.2247394 31.13540266 C1047.1821376 32.69192803 1049.89697991 34.41975939 1052.5997394 36.38540266 C1052.5997394 37.04540266 1052.5997394 37.70540266 1052.5997394 38.38540266 C1053.14114565 38.60196516 1053.6825519 38.81852766 1054.2403644 39.04165266 C1057.41619284 40.85040263 1059.80702022 43.30264066 1062.3497394 45.88540266 C1062.85634097 46.38426985 1063.36294253 46.88313704 1063.88489565 47.39712141 C1067.5997394 51.13199127 1067.5997394 51.13199127 1067.5997394 53.38540266 C1068.2597394 53.38540266 1068.9197394 53.38540266 1069.5997394 53.38540266 C1071.1075519 55.06509016 1071.1075519 55.06509016 1072.7247394 57.26040266 C1073.26356753 57.97969954 1073.80239565 58.69899641 1074.3575519 59.44009016 C1075.5997394 61.38540266 1075.5997394 61.38540266 1075.5997394 63.38540266 C1076.2597394 63.38540266 1076.9197394 63.38540266 1077.5997394 63.38540266 C1079.30162707 65.81322825 1080.87399148 68.23127093 1082.4122394 70.76040266 C1082.86292788 71.49412092 1083.31361636 72.22783919 1083.77796206 72.98379133 C1089.15324446 81.82100462 1093.19764575 90.62095204 1096.5997394 100.38540266 C1097.11655514 101.74110772 1097.6370323 103.09542633 1098.1622394 104.44790266 C1101.01465116 112.08550792 1102.82645485 119.26591486 1103.5997394 127.38540266 C1103.9297394 127.71540266 1104.2597394 128.04540266 1104.5997394 128.38540266 C1104.8935492 133.35078823 1104.91404788 138.31914042 1104.94983706 143.29238508 C1104.96628146 144.96342633 1104.99341655 146.63440068 1105.03186831 148.3050804 C1105.2560559 158.10012867 1105.35834031 166.0052447 1099.5997394 174.38540266 C1099.19022036 175.05386214 1098.78070132 175.72232161 1098.35877261 176.41103743 C1093.10663807 184.86303703 1083.96124771 189.76876641 1074.5997394 192.38540266 C1067.81991113 193.29847786 1060.92841868 193.05766508 1054.10349306 193.01460837 C1052.01251006 193.01982857 1049.92153159 193.02723818 1047.83056316 193.0366302 C1042.08060947 193.05610005 1036.33107557 193.04445127 1030.58112872 193.02774043 C1024.32717271 193.01506106 1018.07328124 193.03135486 1011.81933436 193.0439571 C1000.85709883 193.06202518 989.89500807 193.06163071 978.9327701 193.0487213 C967.17255972 193.0349566 955.41242148 193.03207006 943.65220675 193.04240797 C942.90894038 193.04305384 942.16567402 193.0436997 941.39988443 193.04436513 C938.3725901 193.04703154 935.34529585 193.04977509 932.31800168 193.05261651 C904.13156601 193.07905372 875.94517868 193.08086089 847.75873598 193.06687926 C846.92377406 193.06646528 846.08881213 193.0660513 845.22854833 193.06562478 C843.97409981 193.06500281 843.97409981 193.06500281 842.69430891 193.06436827 C817.21834224 193.05175356 791.74239555 193.04849484 766.26642641 193.05448149 C764.56059137 193.05486889 762.85475632 193.05525467 761.14892127 193.05563884 C754.2939162 193.05719117 747.43891115 193.0587845 740.58390611 193.06043766 C721.42120514 193.06502275 702.25850409 193.06787572 683.09580263 193.06936835 C682.22317103 193.06943657 681.35053943 193.0695048 680.45146445 193.0695751 C652.64469539 193.07162155 624.83793328 193.06598669 597.0311664 193.05512045 C596.12924912 193.05476921 595.22733184 193.05441796 594.29808373 193.05405607 C579.65143422 193.0483313 565.00478487 193.042234 550.35813553 193.0361052 C492.26742691 193.01182343 434.1767759 193.01295045 376.08606753 193.03725813 C361.44681588 193.04336406 346.80756421 193.0494193 332.1683124 193.05512045 C331.26692631 193.05547269 330.36554023 193.05582493 329.43683941 193.05618785 C301.65911741 193.06696839 273.8814002 193.07154022 246.10367617 193.06936835 C244.79568937 193.06926646 244.79568937 193.06926646 243.46127859 193.06916252 C224.31988439 193.06760015 205.17849069 193.06443198 186.03709699 193.05981583 C179.18821198 193.05817012 172.33932694 193.05660471 165.49044191 193.05506228 C163.7866101 193.05467533 162.0827783 193.05428168 160.3789465 193.05388129 C134.90959938 193.04791271 109.44027478 193.05299675 83.97093048 193.06562478 C82.71848759 193.06624575 82.71848759 193.06624575 81.44074282 193.06687926 C80.60732047 193.06729267 79.77389811 193.06770608 78.91522054 193.06813202 C50.81027568 193.08192077 22.70538883 193.0768549 -5.39954773 193.05047554 C-8.4172744 193.04771375 -11.43500114 193.04503023 -14.45272794 193.04240797 C-15.19333177 193.04175694 -15.9339356 193.0411059 -16.69698197 193.04043514 C-28.42572401 193.0305717 -40.15439394 193.03744094 -51.88312947 193.051253 C-63.4148158 193.06447684 -74.94634191 193.05941989 -86.47802033 193.03618256 C-92.64708129 193.02425874 -98.81586876 193.02028361 -104.98492137 193.03821248 C-110.596602 193.05435557 -116.20776636 193.04751503 -121.81940931 193.02230917 C-123.83726597 193.01727154 -125.85516531 193.02060894 -127.8729881 193.03333887 C-142.16428647 193.11710428 -154.5235065 191.72563526 -165.4002606 181.38540266 C-167.69718615 178.86412625 -169.6711079 176.32591233 -171.4002606 173.38540266 C-171.74516538 172.84391585 -172.09007017 172.30242903 -172.44542661 171.74453352 C-176.36895658 164.57971298 -175.97098858 156.91904581 -175.86681333 148.9847679 C-175.83794612 146.58830422 -175.8462135 144.19407412 -175.85924497 141.79751204 C-175.84595293 132.87352473 -174.9866198 124.98494014 -172.4002606 116.38540266 C-172.0506946 114.78469488 -171.71450694 113.18091729 -171.4002606 111.57290266 C-170.53155361 107.59251571 -169.07005039 104.11031836 -167.4002606 100.38540266 C-166.83323092 98.72027162 -166.2712282 97.05342483 -165.7127606 95.38540266 C-161.73660831 84.33716271 -155.54942358 72.67931454 -148.4002606 63.38540266 C-147.7402606 63.38540266 -147.0802606 63.38540266 -146.4002606 63.38540266 C-146.1527606 62.84915266 -145.9052606 62.31290266 -145.6502606 61.76040266 C-144.09373523 58.80300447 -142.36590387 56.08816216 -140.4002606 53.38540266 C-139.7402606 53.38540266 -139.0802606 53.38540266 -138.4002606 53.38540266 C-138.1836981 52.84399641 -137.9671356 52.30259016 -137.7440106 51.74477766 C-135.93526063 48.56894923 -133.4830226 46.17812185 -130.9002606 43.63540266 C-130.40139341 43.1288011 -129.90252622 42.62219954 -129.38854185 42.10024641 C-125.65367199 38.38540266 -125.65367199 38.38540266 -123.4002606 38.38540266 C-123.4002606 37.72540266 -123.4002606 37.06540266 -123.4002606 36.38540266 C-121.7205731 34.87759016 -121.7205731 34.87759016 -119.5252606 33.26040266 C-118.80596372 32.72157454 -118.08666685 32.18274641 -117.3455731 31.62759016 C-115.4002606 30.38540266 -115.4002606 30.38540266 -113.4002606 30.38540266 C-113.4002606 29.72540266 -113.4002606 29.06540266 -113.4002606 28.38540266 C-110.91028221 26.64271671 -108.42757517 25.02917271 -105.8377606 23.44790266 C-105.13328794 23.00510969 -104.42881528 22.56231673 -103.70299497 22.10610579 C-99.38127142 19.43340855 -95.10246649 17.30302997 -90.4002606 15.38540266 C-89.18456812 14.75353088 -87.97468101 14.1101419 -86.7752606 13.44790266 C-82.19648188 11.10923095 -77.37626516 9.74252015 -72.45104185 8.31509016 C-69.47068688 7.45569773 -69.47068688 7.45569773 -66.94322935 6.39321516 C-45.97895229 -1.915208 -22.09693145 -0.04732867 0 0 Z " fill="#000000" transform="translate(175.40026059746742,1073.6145973373204)"/>
<path d="M0 0 C0 0.66 0 1.32 0 2 C0.99 2.33 1.98 2.66 3 3 C3 3.66 3 4.32 3 5 C3.66 5 4.32 5 5 5 C5 5.66 5 6.32 5 7 C5.99 7.33 6.98 7.66 8 8 C8 8.66 8 9.32 8 10 C8.57234375 10.268125 9.1446875 10.53625 9.734375 10.8125 C12.07884634 12.04132636 14.12404938 13.42522176 16.25 15 C16.95640625 15.515625 17.6628125 16.03125 18.390625 16.5625 C19.18726563 17.2740625 19.18726563 17.2740625 20 18 C20 18.66 20 19.32 20 20 C21.08667969 20.39251953 21.08667969 20.39251953 22.1953125 20.79296875 C25.07046613 22.03032595 27.33918014 23.48557547 29.875 25.3125 C31.18984375 26.24835938 31.18984375 26.24835938 32.53125 27.203125 C33.95795755 28.24155138 35.37847664 29.28883743 36.78125 30.359375 C41.1002465 33.61979393 45.70127908 35.97148412 50.56640625 38.328125 C53.01093795 39.51840892 55.42844944 40.73085897 57.83984375 41.984375 C66.39555004 46.40776174 74.85242609 49.93908104 84 53 C85.41972339 53.53360352 86.83696926 54.07391801 88.25 54.625 C107.83415254 61.80585593 128.22111017 64.80736505 149 65 C150.29679687 65.02707031 151.59359375 65.05414063 152.9296875 65.08203125 C160.43679454 65.17237937 167.93672094 64.91148809 175.4375 64.625 C176.82388672 64.57883545 176.82388672 64.57883545 178.23828125 64.53173828 C183.78107349 64.28974319 188.65215175 63.46006564 194 62 C195.64057768 61.77102729 197.28664299 61.57386253 198.9375 61.4375 C201.76447742 61.3836749 201.76447742 61.3836749 204 60 C205.4929489 59.67415798 206.99501867 59.38976523 208.5 59.125 C212.78700439 58.30551557 216.79713218 57.16445266 220.91015625 55.71875 C222.79124877 55.07179482 224.70739113 54.52899555 226.625 54 C230.23281226 52.93101859 233.55341229 51.50396555 237 50 C237.9075 49.71125 238.815 49.4225 239.75 49.125 C243.75114702 47.73998757 247.49875581 45.94598481 251.31640625 44.12109375 C253.89412871 43.04422862 256.24965061 42.44264213 259 42 C259 41.34 259 40.68 259 40 C259.65871094 39.77441406 260.31742188 39.54882812 260.99609375 39.31640625 C265.7158747 37.24804971 269.89290213 34.34763973 274.20507812 31.54492188 C274.89150391 31.10599609 275.57792969 30.66707031 276.28515625 30.21484375 C276.90269775 29.81386475 277.52023926 29.41288574 278.15649414 28.99975586 C280.09157086 27.95034 281.85073627 27.4395884 284 27 C284 26.34 284 25.68 284 25 C285.73548169 23.55473264 287.53975963 22.1912778 289.375 20.875 C290.37273437 20.15054687 291.37046875 19.42609375 292.3984375 18.6796875 C295 17 295 17 297 17 C297 16.34 297 15.68 297 15 C298.69903023 13.48259024 300.46072723 12.034872 302.25 10.625 C305.05313312 8.40770687 307.73701197 6.2694248 310.234375 3.7109375 C312 2 312 2 314 2 C314 1.34 314 0.68 314 0 C322.3215172 -0.40265406 329.08029475 1.22690217 336.6875 4.5625 C339.92501009 6.0599967 339.92501009 6.0599967 343.1875 6.875 C363.48484821 12.86438144 385.79162311 24.66306556 402.30859375 37.80078125 C404.10211296 39.19555702 404.10211296 39.19555702 407 40 C407 40.66 407 41.32 407 42 C407.56203125 42.268125 408.1240625 42.53625 408.703125 42.8125 C411.15550646 44.0803979 413.43927683 45.48972342 415.75 47 C416.54921875 47.515625 417.3484375 48.03125 418.171875 48.5625 C419.07679688 49.2740625 419.07679688 49.2740625 420 50 C420 50.66 420 51.32 420 52 C420.54011719 52.22300781 421.08023438 52.44601562 421.63671875 52.67578125 C424.75902107 54.42530271 427.22198496 56.75184383 429.8125 59.1875 C430.34004883 59.68000244 430.86759766 60.17250488 431.41113281 60.67993164 C432.46143342 61.66374326 433.5095044 62.64994136 434.55517578 63.63867188 C435.80613508 64.81733849 437.07170698 65.98045981 438.33984375 67.140625 C439.28537109 68.03007812 439.28537109 68.03007812 440.25 68.9375 C440.79140625 69.44152344 441.3328125 69.94554687 441.890625 70.46484375 C443 72 443 72 443 76 C442.01 76 441.02 76 440 76 C440 76.66 440 77.32 440 78 C438.35 78.33 436.7 78.66 435 79 C435 79.66 435 80.32 435 81 C434.2265625 81.37511719 433.453125 81.75023437 432.65625 82.13671875 C427.39050134 84.72397397 422.2479329 87.334103 417.3203125 90.51953125 C409.92996026 95.23492435 402.35089203 99.69603011 394.75 104.0625 C394.08484375 104.44535156 393.4196875 104.82820313 392.734375 105.22265625 C391 106 391 106 388 106 C388 106.66 388 107.32 388 108 C386.35 108.33 384.7 108.66 383 109 C383 109.66 383 110.32 383 111 C382.23816406 111.36351562 381.47632813 111.72703125 380.69140625 112.1015625 C375.00051468 114.87240858 369.66986865 117.76786264 364.46875 121.3671875 C357.46006407 126.00267915 349.95662336 129.95943959 342.5625 133.9375 C337.41022001 136.7235477 332.39603376 139.71707476 327.38891602 142.75366211 C323.29488296 145.23591459 319.16125871 147.63204564 315 150 C314.30390625 150.41765625 313.6078125 150.8353125 312.890625 151.265625 C308.33333333 154 308.33333333 154 305 154 C305 154.66 305 155.32 305 156 C304.23816406 156.36351562 303.47632813 156.72703125 302.69140625 157.1015625 C297.00329974 159.87105256 291.67360298 162.76314957 286.4765625 166.36328125 C281.16840352 169.87135477 275.5448735 172.88540554 270 176 C269.07832031 176.53496094 268.15664063 177.06992187 267.20703125 177.62109375 C266.41683594 178.07613281 265.62664062 178.53117188 264.8125 179 C264.13832031 179.391875 263.46414063 179.78375 262.76953125 180.1875 C261 181 261 181 258 181 C258 181.66 258 182.32 258 183 C244.79464893 190.5954866 244.79464893 190.5954866 238.5625 193.9375 C233.46254656 196.69402859 228.51452523 199.6732447 223.55810547 202.67675781 C218.95619865 205.45504603 214.2832095 208.0621412 209.546875 210.60546875 C205.28558257 212.93872243 201.14766642 215.47189856 197 218 C191.87239393 221.12539798 186.73378947 224.16744407 181.4375 227 C177.01370866 229.37527433 172.87924981 232.00559236 168.77734375 234.8984375 C167 236 167 236 165 236 C165 236.66 165 237.32 165 238 C163.3203125 239.5078125 163.3203125 239.5078125 161.125 241.125 C160.40570312 241.66382813 159.68640625 242.20265625 158.9453125 242.7578125 C157 244 157 244 155 244 C155 244.66 155 245.32 155 246 C154.34 246 153.68 246 153 246 C152.67 246.99 152.34 247.98 152 249 C151.34 249 150.68 249 150 249 C150 249.66 150 250.32 150 251 C149.34 251 148.68 251 148 251 C147.67 251.99 147.34 252.98 147 254 C146.34 254 145.68 254 145 254 C145 254.66 145 255.32 145 256 C144.34 256 143.68 256 143 256 C142.67 256.99 142.34 257.98 142 259 C139.9375 260.1875 139.9375 260.1875 138 261 C136.82780457 260.21654285 135.66236332 259.42297164 134.5 258.625 C133.8503125 258.18414063 133.200625 257.74328125 132.53125 257.2890625 C132.0259375 256.86367188 131.520625 256.43828125 131 256 C131 255.34 131 254.68 131 254 C130.21625 253.690625 129.4325 253.38125 128.625 253.0625 C126 252 126 252 124 251 C124 250.34 124 249.68 124 249 C122.35 248.67 120.7 248.34 119 248 C119 247.34 119 246.68 119 246 C118.28328125 245.88398437 117.5665625 245.76796875 116.828125 245.6484375 C113.8693286 244.97003943 111.48025676 243.94222914 108.75 242.625 C89.75534753 233.80151351 70.04916837 233.88560812 49.48605537 233.73963928 C46.4978094 233.71825921 43.50965692 233.69128518 40.52146912 233.66296387 C33.12109197 233.59385842 25.72065036 233.53342363 18.32019043 233.47393799 C12.02022093 233.42309164 5.72031017 233.36839132 -0.57957649 233.30812073 C-3.52727156 233.28153253 -6.47497237 233.26074936 -9.42271423 233.2401123 C-11.21076737 233.22352587 -12.99881791 233.20665553 -14.78686523 233.18945312 C-16.02014305 233.1831765 -16.02014305 233.1831765 -17.27833557 233.17677307 C-22.88612103 233.11387897 -22.88612103 233.11387897 -24 232 C-24.10638011 230.66661484 -24.14616553 229.32780655 -24.15771484 227.99023438 C-24.16797699 227.13844604 -24.17823914 226.28665771 -24.18881226 225.40905762 C-24.19611359 224.4800061 -24.20341492 223.55095459 -24.2109375 222.59375 C-24.23903205 220.63280452 -24.26769664 218.67186715 -24.296875 216.7109375 C-24.33795968 213.61491343 -24.37483688 210.51903636 -24.40136719 207.42285156 C-24.42917497 204.43782997 -24.47507552 201.4535003 -24.5234375 198.46875 C-24.5283168 197.0994635 -24.5283168 197.0994635 -24.53329468 195.70251465 C-24.68361285 187.74488069 -26.32815533 180.71387282 -31.0625 174.1875 C-32.57181032 172.07907414 -33.93194476 170.14243531 -35.05078125 167.80078125 C-36.45290165 165.14079153 -38.187325 164.97832174 -41 164 C-42.17638831 163.32005964 -43.35210477 162.63895624 -44.52734375 161.95703125 C-49.4846918 159.4523017 -53.97845564 159.50805734 -59.4375 159.6875 C-60.80165039 159.70200195 -60.80165039 159.70200195 -62.19335938 159.71679688 C-66.42754554 159.42375097 -66.42754554 159.42375097 -70 161 C-71.66617115 161.04063832 -73.33388095 161.042721 -75 161 C-75 161.66 -75 162.32 -75 163 C-79.38461538 166 -79.38461538 166 -82 166 C-82 166.66 -82 167.32 -82 168 C-83.375 169.625 -83.375 169.625 -85 171 C-85.66 171 -86.32 171 -87 171 C-88.19706113 173.94661201 -89.36177693 176.90522002 -90.5 179.875 C-90.7371875 180.49117187 -90.974375 181.10734375 -91.21875 181.7421875 C-93.24685906 187.60342267 -94.29609331 192.87195257 -94.2746582 199.0715332 C-94.2823246 200.23403091 -94.2823246 200.23403091 -94.29014587 201.42001343 C-94.30396341 203.96368287 -94.30309075 206.5070789 -94.30078125 209.05078125 C-94.30467307 210.83286132 -94.30900874 212.61494047 -94.31376648 214.39701843 C-94.32121229 218.12660736 -94.32094975 221.85610161 -94.31567383 225.58569336 C-94.3098877 230.34331574 -94.32679744 235.10054774 -94.3500185 239.85810566 C-94.3648188 243.53777803 -94.3656189 247.21735781 -94.36250877 250.89705467 C-94.36301903 252.64997314 -94.36820076 254.40289719 -94.37832069 256.15578651 C-94.4454078 269.40269113 -93.68797867 280.37894608 -85 291 C-83.3719908 292.38026867 -81.71956118 293.73561678 -80 295 C-80 295.66 -80 296.32 -80 297 C-79.04287109 297.30744141 -79.04287109 297.30744141 -78.06640625 297.62109375 C-76.82697266 298.02521484 -76.82697266 298.02521484 -75.5625 298.4375 C-74.73878906 298.70433594 -73.91507813 298.97117187 -73.06640625 299.24609375 C-71 300 -71 300 -70 301 C-63.36919274 302.33388086 -56.69500521 302.15197122 -49.95556641 302.15771484 C-47.95497166 302.16551388 -45.95437693 302.17331697 -43.9537828 302.18127275 C-41.81369898 302.18896022 -39.67361934 302.19435767 -37.53352737 302.19923019 C-33.06099843 302.20996538 -28.58854364 302.2302239 -24.11605835 302.25234985 C-11.40162553 302.31409175 1.31280162 302.36826459 14.02734375 302.40136719 C21.05778423 302.41975068 28.08809897 302.44872889 35.11844695 302.4893719 C38.83264202 302.51037098 42.54667919 302.52588913 46.26093674 302.52817917 C50.40639261 302.53073845 54.55141006 302.55626209 58.69677734 302.58349609 C59.91577225 302.58048996 61.13476715 302.57748383 62.39070129 302.5743866 C74.23345117 302.68981035 84.87416766 305.9552665 93.6875 314.1875 C102.94180285 324.04440862 105.70599391 334.31822495 105.3671875 347.4453125 C104.72045437 358.53151085 99.05388609 366.6843868 91 374 C88.4377413 375.917183 85.84380954 377.5385133 83 379 C82.42894531 379.33 81.85789062 379.66 81.26953125 380 C74.95399459 382.78274937 68.82427245 383.29197321 62.03240967 383.25396729 C61.16424441 383.25708727 60.29607914 383.26020725 59.40160584 383.26342177 C56.51083092 383.27135874 53.62026844 383.26509487 50.72949219 383.25878906 C48.64928566 383.26150091 46.5690801 383.26506294 44.48887634 383.26940918 C38.85027041 383.27851459 33.2117378 383.27499591 27.57313061 383.26865101 C21.66237888 383.26357878 15.75163333 383.26828612 9.84088135 383.27142334 C-0.08867516 383.27506055 -10.01820191 383.27027148 -19.94775391 383.26074219 C-31.40842558 383.24987011 -42.86902601 383.25337515 -54.32969594 383.264395 C-64.18389723 383.27348916 -74.03807716 383.27474239 -83.89228129 383.26951766 C-89.77120934 383.26640812 -95.65010398 383.26596039 -101.52902985 383.27259064 C-107.06123603 383.27839402 -112.59335101 383.27431264 -118.12554741 383.26280212 C-120.14910926 383.26017098 -122.17267886 383.26089401 -124.19623756 383.26532745 C-138.22147494 383.2932077 -151.05294994 382.99985247 -164 377 C-164.969375 376.566875 -165.93875 376.13375 -166.9375 375.6875 C-176.22517284 371.3279801 -184.02585925 365.53961162 -191 358 C-191.81210937 357.14341797 -191.81210937 357.14341797 -192.640625 356.26953125 C-204.12019228 343.76678514 -211.32951197 327.31431436 -211.2746582 310.25512695 C-211.27976913 309.41962311 -211.28488007 308.58411926 -211.29014587 307.72329712 C-211.30396912 304.97821747 -211.30308849 302.23339146 -211.30078125 299.48828125 C-211.30467631 297.55462046 -211.30901263 295.62096051 -211.31376648 293.68730164 C-211.32121626 289.63322177 -211.32094946 285.57922896 -211.31567383 281.52514648 C-211.3099256 276.39086842 -211.32670282 271.25695659 -211.3500185 266.12273884 C-211.36494118 262.12350971 -211.36560199 258.12436459 -211.36250877 254.12511253 C-211.36301423 252.23614981 -211.36810193 250.34718138 -211.37832069 248.45824623 C-211.53188141 216.06376282 -211.53188141 216.06376282 -207 207 C-206.8453125 205.1128125 -206.8453125 205.1128125 -206.6875 203.1875 C-206.16317741 197.9942096 -204.64303402 193.28632443 -203.0390625 188.3359375 C-202.05572105 185.1788939 -201.25294295 182.03112427 -200.5 178.8125 C-199.37228262 174.16752353 -197.88089048 169.87579324 -196.0234375 165.4765625 C-194.97877905 162.94864853 -194.07976438 160.39777884 -193.1875 157.8125 C-186.36290608 138.89097882 -175.88059062 117.58340308 -163 102 C-162.34 102 -161.68 102 -161 102 C-160.87625 101.401875 -160.7525 100.80375 -160.625 100.1875 C-160 98 -160 98 -158 95 C-157.34 95 -156.68 95 -156 95 C-155.79503906 94.31292969 -155.59007812 93.62585938 -155.37890625 92.91796875 C-153.54065544 89.02795925 -150.90892414 86.38123393 -147.9375 83.3125 C-144.03104422 79.47907162 -144.03104422 79.47907162 -141 75 C-140.34 75 -139.68 75 -139 75 C-138.505 73.515 -138.505 73.515 -138 72 C-137.34 72 -136.68 72 -136 72 C-136 71.34 -136 70.68 -136 70 C-135.34 70 -134.68 70 -134 70 C-133.505 68.515 -133.505 68.515 -133 67 C-132.34 67 -131.68 67 -131 67 C-131 66.34 -131 65.68 -131 65 C-130.34 65 -129.68 65 -129 65 C-128.505 63.515 -128.505 63.515 -128 62 C-127.34 62 -126.68 62 -126 62 C-126 61.34 -126 60.68 -126 60 C-120.52380952 55 -120.52380952 55 -118 55 C-118 54.34 -118 53.68 -118 53 C-115.22015835 50.41602795 -112.04452365 48.26050906 -109 46 C-107.72239416 45.03159568 -106.44506786 44.06282249 -105.16796875 43.09375 C-103.82091837 42.08252575 -102.47326087 41.07210975 -101.125 40.0625 C-100.47072021 39.56564697 -99.81644043 39.06879395 -99.14233398 38.55688477 C-94.34324405 35 -94.34324405 35 -91 35 C-91 34.34 -91 33.68 -91 33 C-88.98312422 31.59058087 -86.98706667 30.31366993 -84.875 29.0625 C-84.30523437 28.71509766 -83.73546875 28.36769531 -83.1484375 28.00976562 C-73.18875059 22 -73.18875059 22 -69 22 C-69 21.34 -69 20.68 -69 20 C-68.11646851 19.62246582 -68.11646851 19.62246582 -67.21508789 19.23730469 C-64.49727492 18.07553215 -61.77988578 16.91277138 -59.0625 15.75 C-58.13630859 15.35425781 -57.21011719 14.95851563 -56.25585938 14.55078125 C-51.91574979 12.69290978 -47.58798466 10.81860835 -43.2890625 8.8671875 C-39.35630961 7.11170542 -35.4102647 5.70238459 -31.3125 4.375 C-30.07113281 3.97023438 -28.82976562 3.56546875 -27.55078125 3.1484375 C-25.79314453 2.57996094 -25.79314453 2.57996094 -24 2 C-22.95199219 1.64421875 -21.90398437 1.2884375 -20.82421875 0.921875 C-5.91643454 -3.94428969 -5.91643454 -3.94428969 0 0 Z " fill="#000000" transform="translate(593,322)"/>
<path d="M0 0 C0.75878448 0.00115814 1.51756897 0.00231628 2.29934692 0.00350952 C13.30689192 0.03683529 23.79640374 0.53185044 34.5 3.3125 C35.55574219 3.56386719 36.61148438 3.81523437 37.69921875 4.07421875 C42.87929621 5.3813411 47.61593676 7.13211462 52.5 9.3125 C54.16540098 9.87873633 55.83222194 10.44080383 57.5 11 C67.6372994 14.6354453 77.66047024 20.17894874 86.5 26.3125 C86.5 26.9725 86.5 27.6325 86.5 28.3125 C87.098125 28.43625 87.69625 28.56 88.3125 28.6875 C90.5 29.3125 90.5 29.3125 93.5 31.3125 C93.5 31.9725 93.5 32.6325 93.5 33.3125 C94.221875 33.539375 94.94375 33.76625 95.6875 34 C99.09713675 35.59116382 100.87454538 37.60850614 103.5 40.3125 C104.58420816 41.36770705 105.67159522 42.41965518 106.76171875 43.46875 C107.90373999 44.58323686 109.04566579 45.69782153 110.1875 46.8125 C110.76822266 47.36808594 111.34894531 47.92367187 111.94726562 48.49609375 C115.06858288 51.56328412 117.25143892 53.99489522 118.5 58.3125 C119.16 58.3125 119.82 58.3125 120.5 58.3125 C126.2179491 64.97056236 130.52639003 72.53084714 134.5 80.3125 C135.36625 81.9521875 135.36625 81.9521875 136.25 83.625 C140.42612048 91.68923264 143.64919318 99.68533927 146.5 108.3125 C146.85320312 109.32054688 147.20640625 110.32859375 147.5703125 111.3671875 C148.47284353 114.22646647 149.06732232 116.98307854 149.5625 119.9375 C150.16650153 123.59051679 150.16650153 123.59051679 151.0234375 127.1875 C155.81748971 148.5642574 154.3899934 177.87524216 145.46875 198.015625 C144.43902294 200.45707465 143.71126373 202.88622792 143 205.4375 C141.89366457 209.24755357 140.51801871 212.62713152 138.65625 216.125 C137.78547421 217.77241365 136.95955875 219.44365611 136.15625 221.125 C133.20600693 227.27657066 129.9527856 232.84711037 125.91796875 238.3515625 C124.4619935 240.25375811 124.4619935 240.25375811 123.5 242.3125 C122.84 242.3125 122.18 242.3125 121.5 242.3125 C121.17 243.6325 120.84 244.9525 120.5 246.3125 C119.84 246.3125 119.18 246.3125 118.5 246.3125 C118.231875 247.116875 117.96375 247.92125 117.6875 248.75 C117.295625 249.595625 116.90375 250.44125 116.5 251.3125 C115.51 251.6425 114.52 251.9725 113.5 252.3125 C113.5 252.9725 113.5 253.6325 113.5 254.3125 C112.84 254.3125 112.18 254.3125 111.5 254.3125 C111.190625 255.116875 111.190625 255.116875 110.875 255.9375 C108.96749574 259.23228009 106.45180616 261.90613628 103.5 264.3125 C102.84 264.3125 102.18 264.3125 101.5 264.3125 C101.17 265.3025 100.84 266.2925 100.5 267.3125 C99.84 267.3125 99.18 267.3125 98.5 267.3125 C98.5 267.9725 98.5 268.6325 98.5 269.3125 C96.8034668 270.70117188 96.8034668 270.70117188 94.44921875 272.28125 C93.60552734 272.85230469 92.76183594 273.42335938 91.89257812 274.01171875 C90.99990234 274.60597656 90.10722656 275.20023437 89.1875 275.8125 C88.30642578 276.40675781 87.42535156 277.00101562 86.51757812 277.61328125 C84.18277388 279.1863889 81.84306675 280.75173601 79.5 282.3125 C78.51 282.9725 77.52 283.6325 76.5 284.3125 C75.51 284.3125 74.52 284.3125 73.5 284.3125 C73.5 284.9725 73.5 285.6325 73.5 286.3125 C72.77554688 286.63863281 72.05109375 286.96476562 71.3046875 287.30078125 C70.33789062 287.73777344 69.37109375 288.17476563 68.375 288.625 C66.94800781 289.26888672 66.94800781 289.26888672 65.4921875 289.92578125 C63.47654986 290.85992141 61.48127557 291.83915127 59.5078125 292.859375 C54.38837323 295.33266254 48.94422017 296.71863291 43.5 298.3125 C41.7675 298.84423828 41.7675 298.84423828 40 299.38671875 C38.845 299.73347656 37.69 300.08023437 36.5 300.4375 C35.46875 300.74945313 34.4375 301.06140625 33.375 301.3828125 C23.05017805 303.85993712 12.87946853 304.66124139 2.29907227 304.62817383 C0.19950093 304.62501804 -1.89864848 304.64856962 -3.99804688 304.67382812 C-13.83064182 304.71836916 -22.89111752 303.4013574 -32.5 301.3125 C-34.12454463 300.99764128 -35.74940932 300.68441267 -37.375 300.375 C-41.404527 299.45156673 -45.12157912 297.96535719 -48.92578125 296.36328125 C-51.44494719 295.33497224 -53.98035497 294.48050645 -56.5625 293.625 C-68.92478234 289.15353617 -80.1369021 282.31637662 -90.5 274.3125 C-91.8920058 273.3486155 -93.28733846 272.3894985 -94.6875 271.4375 C-95.615625 270.73625 -96.54375 270.035 -97.5 269.3125 C-97.5 268.6525 -97.5 267.9925 -97.5 267.3125 C-98.0775 267.044375 -98.655 266.77625 -99.25 266.5 C-101.55550043 265.28320811 -103.52056192 264.00916121 -105.5 262.3125 C-105.5 261.6525 -105.5 260.9925 -105.5 260.3125 C-106.16 260.3125 -106.82 260.3125 -107.5 260.3125 C-109.19140625 258.66796875 -109.19140625 258.66796875 -111.0625 256.5 C-111.68253906 255.79230469 -112.30257812 255.08460938 -112.94140625 254.35546875 C-114.5 252.3125 -114.5 252.3125 -115.5 249.3125 C-116.16 249.3125 -116.82 249.3125 -117.5 249.3125 C-118.94526736 247.57701831 -120.3087222 245.77274037 -121.625 243.9375 C-122.34945312 242.93976563 -123.07390625 241.94203125 -123.8203125 240.9140625 C-125.5 238.3125 -125.5 238.3125 -125.5 236.3125 C-126.16 236.3125 -126.82 236.3125 -127.5 236.3125 C-127.88671875 235.51585937 -128.2734375 234.71921875 -128.671875 233.8984375 C-131.83259249 227.3923584 -131.83259249 227.3923584 -135.625 221.25 C-137.84423623 217.77319658 -139.06979791 214.28484463 -140.375 210.38671875 C-141.29908258 207.86153477 -142.32597753 205.50960982 -143.4609375 203.078125 C-145.61318403 198.28842901 -146.95065861 193.48288033 -148.125 188.375 C-148.33664795 187.46476074 -148.5482959 186.55452148 -148.76635742 185.61669922 C-154.63622502 159.37681693 -153.71150552 132.01085534 -145.5 106.3125 C-144.84 105.3225 -144.18 104.3325 -143.5 103.3125 C-142.99913175 101.76311086 -142.54486862 100.1982724 -142.125 98.625 C-140.74333183 93.84123431 -138.84256244 89.6870579 -136.5 85.3125 C-135.85105869 84.0015339 -135.20525143 82.689012 -134.5625 81.375 C-132.35031682 76.94182016 -129.93613825 72.6256628 -127.5 68.3125 C-126.84 68.3125 -126.18 68.3125 -125.5 68.3125 C-125.190625 67.52875 -124.88125 66.745 -124.5625 65.9375 C-123.5 63.3125 -123.5 63.3125 -122.5 61.3125 C-121.84 61.3125 -121.18 61.3125 -120.5 61.3125 C-120.26152344 60.76722656 -120.02304687 60.22195312 -119.77734375 59.66015625 C-118.17836648 56.72136317 -116.19644514 54.32545103 -114.0625 51.75 C-112.88880859 50.32494141 -112.88880859 50.32494141 -111.69140625 48.87109375 C-108.16631064 44.75534041 -108.16631064 44.75534041 -106.5 43.3125 C-105.84 43.3125 -105.18 43.3125 -104.5 43.3125 C-104.5 42.6525 -104.5 41.9925 -104.5 41.3125 C-103.0390625 39.8046875 -103.0390625 39.8046875 -101.125 38.1875 C-100.49851562 37.64867187 -99.87203125 37.10984375 -99.2265625 36.5546875 C-97.5 35.3125 -97.5 35.3125 -95.5 35.3125 C-95.5 34.6525 -95.5 33.9925 -95.5 33.3125 C-93.34609994 31.59774461 -91.19429308 30.00605122 -88.9375 28.4375 C-88.32841797 28.00308594 -87.71933594 27.56867187 -87.09179688 27.12109375 C-83.0192741 24.25093484 -78.85528135 21.73097404 -74.5 19.3125 C-73.63117188 18.80847656 -72.76234375 18.30445312 -71.8671875 17.78515625 C-62.25276002 12.34501782 -52.01643441 8.61707129 -41.5 5.3125 C-39.7675 4.755625 -39.7675 4.755625 -38 4.1875 C-34.65945437 3.35236359 -31.52348905 2.92049143 -28.1015625 2.65625 C-25.27930908 2.34123969 -25.27930908 2.34123969 -21.7421875 1.30078125 C-14.61006333 -0.31755509 -7.2735931 -0.03408837 0 0 Z " fill="#000000" transform="translate(749.5,13.6875)"/>
<path d="M0 0 C1.19496094 -0.00128906 2.38992187 -0.00257813 3.62109375 -0.00390625 C4.87019531 -0.00003906 6.11929688 0.00382813 7.40625 0.0078125 C8.65535156 0.00394531 9.90445313 0.00007812 11.19140625 -0.00390625 C12.98384766 -0.00197266 12.98384766 -0.00197266 14.8125 0 C16.45702148 0.00169189 16.45702148 0.00169189 18.13476562 0.00341797 C20.90625 0.1328125 20.90625 0.1328125 23.90625 1.1328125 C25.73749228 1.28541602 27.57145985 1.4064162 29.40625 1.5078125 C37.62167563 2.14282124 45.19324666 4.3106053 52.83203125 7.33203125 C54.33663622 7.91290511 55.85761101 8.45193044 57.38671875 8.96484375 C68.06418261 12.58562875 77.63589775 17.93988492 86.73828125 24.5625 C88.63209768 25.9342373 90.55326759 27.20042846 92.53125 28.4453125 C93.315 29.0021875 94.09875 29.5590625 94.90625 30.1328125 C94.90625 30.7928125 94.90625 31.4528125 94.90625 32.1328125 C95.46828125 32.3803125 96.0303125 32.6278125 96.609375 32.8828125 C99.29717569 34.34556117 101.37030482 36.10086123 103.65625 38.1328125 C104.85507812 39.1846875 104.85507812 39.1846875 106.078125 40.2578125 C107.90625 42.1328125 107.90625 42.1328125 107.90625 44.1328125 C108.56625 44.1328125 109.22625 44.1328125 109.90625 44.1328125 C114.90625 49.60900298 114.90625 49.60900298 114.90625 52.1328125 C115.56625 52.1328125 116.22625 52.1328125 116.90625 52.1328125 C122.6235666 58.79013836 126.93001868 66.35322948 130.90625 74.1328125 C131.421875 75.1021875 131.9375 76.0715625 132.46875 77.0703125 C135.65240403 83.18292824 138.11907079 89.24287508 140.14453125 95.83203125 C140.69470623 98.07094745 140.69470623 98.07094745 141.90625 99.1328125 C142.40290635 101.15491336 142.8806417 103.18248242 143.296875 105.22265625 C143.71632595 107.2258034 144.1883696 109.2184198 144.703125 111.19921875 C149.10734009 130.12487888 148.76471719 152.35157364 143.90625 171.1328125 C143.59088307 172.77809889 143.27798182 174.42386199 142.96875 176.0703125 C142.09144307 179.92315211 140.58461745 183.33139916 138.8984375 186.89453125 C137.93904152 189.05883792 137.25634418 191.17531393 136.59375 193.4453125 C134.97326462 198.57835836 132.22865811 202.96077901 129.4296875 207.53125 C127.79881641 210.11093653 127.79881641 210.11093653 126.90625 213.1328125 C126.24625 213.1328125 125.58625 213.1328125 124.90625 213.1328125 C124.83148438 213.6690625 124.75671875 214.2053125 124.6796875 214.7578125 C123.59606097 218.08531215 121.66523554 220.37037167 119.53125 223.1328125 C118.73976562 224.1640625 117.94828125 225.1953125 117.1328125 226.2578125 C116.39804688 227.2065625 115.66328125 228.1553125 114.90625 229.1328125 C114.08253906 230.3084375 114.08253906 230.3084375 113.2421875 231.5078125 C112.58089844 232.3121875 112.58089844 232.3121875 111.90625 233.1328125 C111.24625 233.1328125 110.58625 233.1328125 109.90625 233.1328125 C109.57625 234.1228125 109.24625 235.1128125 108.90625 236.1328125 C108.24625 236.1328125 107.58625 236.1328125 106.90625 236.1328125 C106.90625 236.7928125 106.90625 237.4528125 106.90625 238.1328125 C106.24625 238.1328125 105.58625 238.1328125 104.90625 238.1328125 C104.57625 239.1228125 104.24625 240.1128125 103.90625 241.1328125 C103.24625 241.1328125 102.58625 241.1328125 101.90625 241.1328125 C101.90625 241.7928125 101.90625 242.4528125 101.90625 243.1328125 C96.43005952 248.1328125 96.43005952 248.1328125 93.90625 248.1328125 C93.90625 248.7928125 93.90625 249.4528125 93.90625 250.1328125 C89.52163462 253.1328125 89.52163462 253.1328125 86.90625 253.1328125 C86.90625 253.7928125 86.90625 254.4528125 86.90625 255.1328125 C76.10284232 262.80357062 64.50364734 268.1682365 51.90625 272.1328125 C50.42649776 272.65197981 48.94728232 273.17268111 47.46875 273.6953125 C35.97768227 277.45714684 24.90977895 278.76871329 12.90625 279.1328125 C11.45605469 279.17728516 11.45605469 279.17728516 9.9765625 279.22265625 C7.28036909 279.25953428 4.60153348 279.21546786 1.90625 279.1328125 C0.58882812 279.09285156 -0.72859375 279.05289062 -2.0859375 279.01171875 C-11.06150266 278.65735352 -19.41552271 277.5902726 -28.09375 275.1328125 C-29.34671875 274.79378906 -30.5996875 274.45476562 -31.890625 274.10546875 C-41.92095009 271.26918062 -50.9619225 267.12070582 -60.09375 262.1328125 C-61.01704102 261.63201172 -61.01704102 261.63201172 -61.95898438 261.12109375 C-69.2036898 257.15804408 -69.2036898 257.15804408 -72.09375 255.1328125 C-72.09375 254.4728125 -72.09375 253.8128125 -72.09375 253.1328125 C-73.16689453 252.7615625 -73.16689453 252.7615625 -74.26171875 252.3828125 C-77.40784706 250.99417655 -79.73185963 249.28817304 -82.40625 247.1328125 C-83.28925781 246.4315625 -84.17226562 245.7303125 -85.08203125 245.0078125 C-86.07783203 244.0796875 -86.07783203 244.0796875 -87.09375 243.1328125 C-87.09375 242.4728125 -87.09375 241.8128125 -87.09375 241.1328125 C-87.733125 240.8646875 -88.3725 240.5965625 -89.03125 240.3203125 C-91.09375 239.1328125 -91.09375 239.1328125 -92.09375 236.1328125 C-92.75375 236.1328125 -93.41375 236.1328125 -94.09375 236.1328125 C-98.92342363 231.45251022 -103.46386135 225.79703435 -107.09375 220.1328125 C-107.09375 219.4728125 -107.09375 218.8128125 -107.09375 218.1328125 C-107.75375 218.1328125 -108.41375 218.1328125 -109.09375 218.1328125 C-109.48046875 217.41996094 -109.8671875 216.70710937 -110.265625 215.97265625 C-110.78640625 215.01488281 -111.3071875 214.05710937 -111.84375 213.0703125 C-112.66746094 211.554375 -112.66746094 211.554375 -113.5078125 210.0078125 C-114.70751193 207.83298792 -115.93997474 205.69819453 -117.21875 203.5703125 C-119.15331534 200.02360938 -120.64931641 196.48281134 -122.08984375 192.71484375 C-122.72901466 191.07090611 -123.40520928 189.44055017 -124.12890625 187.83203125 C-127.05514954 181.21182304 -128.29086156 174.5694771 -129.48046875 167.4765625 C-129.90759613 164.27302048 -129.90759613 164.27302048 -131.09375 162.1328125 C-131.19796774 160.74652629 -131.24237347 159.35547387 -131.25488281 157.96533203 C-131.26929413 156.67225632 -131.26929413 156.67225632 -131.28399658 155.35305786 C-131.28824646 154.41670502 -131.29249634 153.48035217 -131.296875 152.515625 C-131.30257507 151.54809296 -131.30827515 150.58056091 -131.31414795 149.58370972 C-131.32361168 147.52749731 -131.33013736 145.47126965 -131.33398438 143.41503906 C-131.34360387 140.30505748 -131.3745777 137.19576142 -131.40625 134.0859375 C-131.46011657 124.01299026 -131.33953524 114.78177762 -128.09375 105.1328125 C-127.77792969 103.88628906 -127.46210937 102.63976562 -127.13671875 101.35546875 C-124.91766156 93.15812962 -121.85839529 85.73410448 -118.09375 78.1328125 C-117.76632813 77.41738281 -117.43890625 76.70195313 -117.1015625 75.96484375 C-112.89802294 66.94397345 -106.81758569 58.82208862 -100.63671875 51.0703125 C-99.55269207 49.70910431 -98.51708962 48.30860312 -97.51953125 46.8828125 C-97.04902344 46.3053125 -96.57851562 45.7278125 -96.09375 45.1328125 C-95.43375 45.1328125 -94.77375 45.1328125 -94.09375 45.1328125 C-93.85269531 44.55789063 -93.61164063 43.98296875 -93.36328125 43.390625 C-86.41164241 31.02740269 -68.33881195 21.25534348 -56.09375 15.1328125 C-54.94519531 14.41931641 -54.94519531 14.41931641 -53.7734375 13.69140625 C-41.69232911 6.66463912 -25.35746931 1.81719153 -11.4140625 1.2734375 C-7.47706893 1.03483183 -4.05671757 0.00417358 0 0 Z " fill="#000000" transform="translate(131.09375,724.8671875)"/>
<path d="M0 0 C0.04627253 10.52652818 0.08184327 21.0530323 0.10362434 31.57964134 C0.1140764 36.46719318 0.12826144 41.35467561 0.15087891 46.2421875 C0.17255671 50.95596629 0.1845579 55.66967818 0.18975449 60.38350296 C0.19345937 62.18490274 0.20069374 63.98629872 0.21146011 65.78767014 C0.22590787 68.30432901 0.22798078 70.82070889 0.22705078 73.33740234 C0.23424133 74.08762161 0.24143188 74.83784088 0.24884033 75.61079407 C0.22810432 80.77189568 0.22810432 80.77189568 -2 83 C-4.0024786 83.25726891 -4.0024786 83.25726891 -6.51023865 83.26742554 C-7.4594519 83.27595551 -8.40866516 83.28448547 -9.38664246 83.29327393 C-10.43137222 83.29236755 -11.47610199 83.29146118 -12.55249023 83.29052734 C-14.19893021 83.30060318 -14.19893021 83.30060318 -15.87863159 83.31088257 C-19.52199783 83.32994506 -23.16518069 83.33379085 -26.80859375 83.3359375 C-29.33203712 83.34235936 -31.85547974 83.34908725 -34.37892151 83.35610962 C-39.67426583 83.36810284 -44.96954132 83.37187372 -50.26489258 83.37060547 C-56.3884631 83.3694036 -62.5116814 83.39051161 -68.63516277 83.4220928 C-74.52234479 83.4513753 -80.40941895 83.45858219 -86.29667854 83.45738602 C-88.80340069 83.45975252 -91.31012521 83.46863451 -93.81680107 83.48405075 C-97.31753962 83.50356502 -100.81736312 83.49792965 -104.31811523 83.48583984 C-105.36082077 83.49707886 -106.40352631 83.50831787 -107.47782898 83.51989746 C-108.42986206 83.51150848 -109.38189514 83.50311951 -110.36277771 83.49447632 C-111.60468447 83.49611062 -111.60468447 83.49611062 -112.87168026 83.49777794 C-115 83 -115 83 -116.76492405 81.11924171 C-118.24404964 78.58124019 -118.40202162 76.98533875 -118.375 74.0625 C-118.38273438 73.22847656 -118.39046875 72.39445313 -118.3984375 71.53515625 C-117.79717624 67.7094841 -116.57223405 65.1660856 -113.40185547 62.81469727 C-111.38376166 61.55854749 -109.33291948 60.39540958 -107.25 59.25 C-105.70912924 58.37589169 -104.16877433 57.50087348 -102.62890625 56.625 C-101.85305176 56.18800781 -101.07719727 55.75101563 -100.27783203 55.30078125 C-96.87054839 53.35501413 -93.53351693 51.29860861 -90.1875 49.25 C-84.69745134 45.91351035 -79.103821 42.94391521 -73.29296875 40.19140625 C-70.88622157 39.08718044 -70.88622157 39.08718044 -69 37 C-68.01 37 -67.02 37 -66 37 C-66 36.34 -66 35.68 -66 35 C-65.23816406 34.63648438 -64.47632813 34.27296875 -63.69140625 33.8984375 C-58.00051468 31.12759142 -52.66986865 28.23213736 -47.46875 24.6328125 C-39.63098321 19.44897307 -31.20642483 15.08992476 -22.93359375 10.65234375 C-20.6352494 9.35780359 -18.39772479 8.0226483 -16.16015625 6.62890625 C-15.49234131 6.21568115 -14.82452637 5.80245605 -14.13647461 5.37670898 C-12.82260267 4.55910716 -11.51449004 3.73215622 -10.21313477 2.89477539 C-6.55773272 0.62410615 -4.25964423 -0.20448473 0 0 Z " fill="#000000" transform="translate(1110,697)"/>
</svg>
