<svg width="106" height="27" viewBox="0 0 106 27" fill="none" xmlns="http://www.w3.org/2000/svg">
<path d="M105.826 25.1476C106.626 19.3476 98.4256 14.5476 92.2256 14.0476C89.3256 13.8476 86.2256 14.2476 83.4256 13.2476C77.4256 11.1476 74.9256 3.34757 69.0256 0.847572C64.6256 -1.05243 59.5256 0.647574 55.2256 2.74757C50.9256 4.94757 46.7256 7.64757 41.9256 7.94757C37.7256 8.24757 33.2256 6.64757 29.6256 8.74757C26.9256 10.2476 25.5256 13.3476 23.0256 15.2476C20.6256 17.0476 17.4256 17.4476 14.3256 17.5476C11.3256 17.7476 8.12561 17.7476 5.42561 19.0476C2.62561 20.3476 0.425609 23.2476 0.925609 26.2476L105.826 25.1476Z" fill="#F5F5F5"/>
</svg>
